<svg xmlns="http://www.w3.org/2000/svg" viewBox="0 0 470.9 477.5"><defs><style>.a{fill:#ea5d59;}.b{fill:#ee4033;}.c{fill:#eadc36;}.d{fill:#e8a538;}.e{fill:#fff;}</style></defs><title>image</title><path class="a" d="M77.11,49.11l14.06-1-6.74-6Q80.75,45.45,77.11,49.11Z"/><path class="b" d="M283.34,41.91a10.87,10.87,0,0,0,1.3-.09q-6-4.83-12-9A10.8,10.8,0,0,0,283.34,41.91Z"/><path class="a" d="M293.62,34.42h0l-0.44-.3c-5.22-3.52-54.87-35.86-114.72-32.55C204.61,0.78,235,7.73,268,29.65c1.55,1,3.11,2.09,4.67,3.19q5.93,4.16,12,9,6.36,5.1,12.83,11a29.06,29.06,0,0,1,2.92,1.88A17.9,17.9,0,0,0,293.62,34.42Z"/><path class="b" d="M84.2,41.91l0.23,0.21c31-28.13,63.8-38.88,94-40.56C121.24,3.27,84.2,41.91,84.2,41.91Z"/><polygon class="c" points="50.41 119.49 -0.56 170.46 50.73 221.75 50.41 119.49"/><path class="b" d="M50.41,223.81v-2.38c-0.32,24.14-38.35,63.75-38.35,94.05,0,32.19,44,32,44-.24l0-.38a210.75,210.75,0,0,1-5.66-48.61V223.81Z"/><path class="b" d="M149.58,6A144.4,144.4,0,0,0,84.2,41.91h0A105.62,105.62,0,0,1,96,32.48,149.57,149.57,0,0,1,149.58,6Z"/><path class="b" d="M293.16,34.11l0.44,0.3h0a10.79,10.79,0,0,0-7.32-13.71c-12-5.21-61.33-24.63-115-18.58q3.59-.37,7.13-0.56C238.29-1.75,287.95,30.59,293.16,34.11Z"/><path class="b" d="M155.51,14A105.14,105.14,0,0,1,256.67,90.48l1.9,2.82h0a29,29,0,1,0,38.91-40.51A247.25,247.25,0,0,0,268,29.65h0q-3.06-2-6.1-3.9l-0.06,0c-0.88-.54-1.76-1.07-2.64-1.59l-0.73-.43-2.58-1.49-0.51-.29q-4.12-2.32-8.19-4.34l-0.67-.33L244.07,16l-0.77-.36q-4-1.85-7.85-3.43L234.84,12l-2.28-.89-1-.37-2.21-.81-0.88-.31q-2.34-.82-4.65-1.56l-0.39-.12-2-.61L220.21,7l-1.9-.54L217,6.08l-1.83-.48-1.61-.39q-1.39-.33-2.78-0.63l-1.58-.34-1.58-.31L206,3.64l-1.48-.26-2-.32L201,2.84l-2.49-.33-1.23-.14-1.89-.2L194.22,2l-2.07-.17-0.95-.07q-1.47-.1-2.92-0.17l-0.76,0-2.23-.07-1,0h-3c-1,0-1.93,0-2.89.05q-3.54.2-7.13,0.56A146,146,0,0,0,149.58,6,149.57,149.57,0,0,0,96,32.48,104.6,104.6,0,0,1,155.51,14Z"/><path class="d" d="M260.61,266.25V119.49h0c0-.13,0-0.26,0-0.39a105.1,105.1,0,0,0-210.2,0c0,0.13,0,.26,0,0.39h0V266.25a210.75,210.75,0,0,0,5.66,48.61C78,407.51,161.26,476.45,260.61,476.45c116.09,0,210.2-94.11,210.2-210.2v-147C470.81,162.81,376.13,266.25,260.61,266.25Z"/><circle class="e" cx="155.51" cy="119.49" r="42.61"/></svg>