<svg xmlns="http://www.w3.org/2000/svg" viewBox="0 0 472.9 504.55"><defs><style>.a{fill:#e6e6e6;}.b{fill:#ea5d59;}.c{fill:#ee4033;}.d{fill:#eadc36;}.e{fill:#e8a538;}.f{fill:#fff;}</style></defs><title>image</title><ellipse class="a" cx="262.71" cy="476.95" rx="157.64" ry="27.05"/><path class="b" d="M79.21,49.61l14.06-1-6.74-6Q82.85,46,79.21,49.61Z"/><path class="c" d="M285.43,42.41a10.87,10.87,0,0,0,1.3-.09q-6-4.83-12-9A10.8,10.8,0,0,0,285.43,42.41Z"/><path class="b" d="M295.72,34.92h0l-0.44-.3C290,31.09,240.38-1.25,180.54,2.06c26.17-.78,56.57,6.17,89.56,28.09,1.55,1,3.11,2.09,4.67,3.19q5.93,4.16,12,9,6.36,5.1,12.83,11a29.06,29.06,0,0,1,2.92,1.88A17.9,17.9,0,0,0,295.72,34.92Z"/><path class="c" d="M86.29,42.41l0.23,0.21c31-28.13,63.8-38.88,94-40.56C123.33,3.78,86.29,42.41,86.29,42.41Z"/><polygon class="d" points="52.51 120 1.54 170.97 52.83 222.25 52.51 120"/><path class="c" d="M52.51,224.32v-2.38C52.19,246.08,14.16,285.69,14.16,316c0,32.19,44,32,44-.24l0-.38a210.75,210.75,0,0,1-5.66-48.61V224.32Z"/><path class="c" d="M151.68,6.53A144.4,144.4,0,0,0,86.29,42.41h0A105.62,105.62,0,0,1,98.09,33,149.57,149.57,0,0,1,151.68,6.53Z"/><path class="c" d="M295.26,34.61l0.44,0.3h0a10.79,10.79,0,0,0-7.32-13.71c-12-5.21-61.33-24.63-115-18.58q3.59-.37,7.13-0.56C240.38-1.25,290,31.09,295.26,34.61Z"/><path class="c" d="M157.61,14.5A105.14,105.14,0,0,1,258.76,91l1.9,2.82h0a29,29,0,1,0,38.91-40.51A247.25,247.25,0,0,0,270.1,30.15h0q-3.06-2-6.1-3.9l-0.06,0c-0.88-.54-1.76-1.07-2.64-1.59l-0.73-.43L258,22.7l-0.51-.29q-4.12-2.32-8.19-4.34l-0.67-.33-2.46-1.19-0.77-.36q-4-1.85-7.85-3.43l-0.61-.25-2.28-.89-1-.37-2.21-.81-0.88-.31q-2.34-.82-4.65-1.56l-0.39-.12-2-.61-1.22-.36-1.9-.54-1.32-.35-1.83-.48-1.61-.39q-1.39-.33-2.78-0.63l-1.58-.34-1.58-.31-1.62-.3-1.48-.26-2-.32-1.48-.22L200.65,3l-1.23-.14-1.89-.2-1.21-.12-2.07-.17-0.95-.07q-1.47-.1-2.92-0.17l-0.76,0L187.39,2l-1,0h-3c-1,0-1.93,0-2.89.05q-3.54.2-7.13,0.56a146,146,0,0,0-21.73,3.9A149.57,149.57,0,0,0,98.09,33,104.6,104.6,0,0,1,157.61,14.5Z"/><path class="e" d="M262.71,266.75V120h0c0-.13,0-0.26,0-0.39a105.1,105.1,0,0,0-210.2,0c0,0.13,0,.26,0,0.39h0V266.75a210.75,210.75,0,0,0,5.66,48.61C80.11,408,163.35,477,262.71,477c116.09,0,210.2-94.11,210.2-210.2v-147C472.9,163.31,378.22,266.75,262.71,266.75Z"/><circle class="f" cx="157.61" cy="119.99" r="42.61"/></svg>