<svg xmlns="http://www.w3.org/2000/svg" viewBox="0 0 557 346.08"><defs><style>.a{fill:#ee4033;}</style></defs><title>image</title><path class="a" d="M0,346.08v-6c105.39,0,160.8-72.62,209.69-136.68,19.23-25.21,37.4-49,57.24-66.64,22.54-20,44.17-29.35,68.07-29.35,59.41,0,83.77-24.88,109.57-51.23C469,31.27,494.18,5.52,550.47,3.69l0.2,6c-53.89,1.75-77.17,25.53-101.81,50.7-25.53,26.07-51.93,53-113.85,53-49.1,0-82.21,43.39-120.54,93.62C164.73,272.21,108.36,346.08,0,346.08Z"/><circle class="a" cx="550.23" cy="6.77" r="6.77" transform="translate(0.02 15.14) rotate(-1.58)"/></svg>