<svg xmlns="http://www.w3.org/2000/svg" viewBox="0 0 666 491.07"><defs><style>.a,.c,.e{fill:none;stroke-miterlimit:10;stroke-width:6px;}.a{stroke:#636363;}.b,.g{fill:#636363;}.c{stroke:#ee4033;}.d,.f{fill:#ee4033;}.e{stroke:#303030;}.f,.g,.i{font-size:23.53px;font-family:Bebas;}.h{letter-spacing:1px;}.i{fill:#303030;}</style></defs><title>image</title><path class="a" d="M57,117.57c76,0,106,117.5,148,117.5s36-24,53.5-24c48.5,0,66,147.06,92.5,147.06s20.06-74.78,74.78-74.78S453.67,396.57,541.5,396.57c36.45,0,23.34-59.28,66.08-64.62"/><circle class="b" cx="607.25" cy="332.04" r="6.77" transform="translate(-21.76 43.35) rotate(-4.02)"/><path class="c" d="M57,426.07c190.17,0,219.5-232.67,335-232.67,118.79,0,103-100.07,215.57-103.73"/><circle class="d" cx="607.23" cy="89.75" r="6.77" transform="translate(-2.24 16.74) rotate(-1.58)"/><line class="e" x1="57" y1="62.07" x2="57" y2="491.07"/><line class="e" x1="614" y1="426.07" y2="426.07"/><path class="e" d="M32.67,52.07S57,28.66,57,4.07"/><path class="e" d="M81.33,52.07S57,28.66,57,4.07"/><path class="e" d="M618,450.4s23.41-24.33,48-24.33"/><path class="e" d="M618,401.73s23.41,24.33,48,24.33"/><text class="f" transform="translate(573.6 77.23)">F<tspan x="11.64" y="0">R</tspan><tspan x="23.47" y="0">Y</tspan><tspan x="38.09" y="0">D</tspan></text><text class="f" transform="translate(624.26 69.4) scale(0.58)">T<tspan x="12.86" y="0">M</tspan></text><text class="g" transform="translate(538.14 319.9)">C<tspan class="h" x="13.01" y="0">O</tspan><tspan class="h" x="26.26" y="0">M</tspan><tspan x="44.21" y="0">P</tspan><tspan x="57.14" y="0">E</tspan><tspan x="68.77" y="0">TI</tspan><tspan x="87.81" y="0">T</tspan><tspan class="h" x="100.31" y="0">O</tspan><tspan x="113.57" y="0">R</tspan><tspan x="126.27" y="0">S</tspan></text><text class="i" transform="translate(550.7 459.9)">T<tspan class="h" x="12.87" y="0">IM</tspan><tspan x="37.28" y="0">E</tspan></text><text class="i" transform="translate(41.85 188.79) rotate(-90)">P<tspan class="h" x="12.57" y="0">o</tspan><tspan x="25.83" y="0">p</tspan><tspan class="h" x="38.74" y="0">u</tspan><tspan x="52.01" y="0">l</tspan><tspan x="63.26" y="0">a</tspan><tspan class="h" x="77.8" y="0">r</tspan><tspan x="91.58" y="0">i</tspan><tspan x="97.75" y="0">ty</tspan></text></svg>