<svg xmlns="http://www.w3.org/2000/svg" viewBox="0 0 557.02 285"><defs><style>.a{fill:#636363;}</style></defs><title>image</title><path class="a" d="M484.5,285c-22.84,0-40.28-7.4-53.33-22.63-11.26-13.14-17.51-29.79-23.55-45.88-9-24-16.78-44.71-38.84-44.71-30.28,0-40.51,24.18-49.53,45.51C312.6,233,306.86,246.56,294,246.56s-21.51-22.45-34.8-59.09c-14.22-39.19-31.91-88-57.7-88-5.51,0-8,2.85-11.81,7.16-6.25,7.11-14.81,16.84-41.69,16.84-19.43,0-35.49-21.82-54.09-47.09C69.61,43.4,42.08,6,0,6V0C45.11,0,74.85,40.39,98.74,72.85c17.64,24,32.87,44.65,49.26,44.65,24.17,0,31.39-8.21,37.19-14.8,4.16-4.73,8.09-9.2,16.31-9.2,30,0,47.71,48.84,63.34,91.92,9.38,25.84,20,55.14,29.16,55.14,8.46,0,13-9.73,19.72-25.61,9.27-21.91,20.8-49.17,55.06-49.17,26.22,0,35.08,23.61,44.46,48.6,5.86,15.61,11.91,31.75,22.49,44.08C447.57,272.28,463.52,279,484.5,279c15.77,0,21.16-12.64,27.41-27.28,6.87-16.11,14.67-34.37,38.3-37.32l0.74,6c-20.21,2.52-27,18.38-33.53,33.72S504.23,285,484.5,285Z"/><circle class="a" cx="550.25" cy="217.47" r="6.77" transform="translate(-13.88 39.07) rotate(-4.02)"/></svg>