<svg xmlns="http://www.w3.org/2000/svg" viewBox="0 0 958.1 393.82"><defs><style>.a{fill:#231f20;}.b{fill:#ef4133;}</style></defs><title>Logo</title><path class="a" d="M541.4,146.82H506.1V94s-0.4-13.71,12.41-13.72c5.82,0,22.89.36,29,.36V43.37c-12.16,0-27,.08-42.88.16-37,.2-36.18,37.15-36.18,37.15v206H506.1V185.35l35.3-.05V146.82Z"/><path class="a" d="M635.42,146.82c-19,0-27.37,4.8-36.49,10.35V146.82H559.4V286.69h38V222.83c0.22-24.33,15.67-35.54,38-35.54h0V146.82h0Z"/><path class="a" d="M958.1,48H918.57V158.59c-12.16-5.52-21.59-8.66-33.88-8.66a71,71,0,0,0,0,142.06c12.29,0,21.73-3.14,33.9-8.66v4.84H958.1V48Zm-70,206.9a32.63,32.63,0,0,1-3.36.17h-0.08a34.07,34.07,0,0,1,0-68.14h0.06a32.66,32.66,0,0,1,3.33.17A34.07,34.07,0,0,1,888.05,254.86Z"/><path class="a" d="M760.93,146.82h33.45V323.18c-0.21,42.57-32.13,70.65-71.34,70.65s-71.13-28.08-71.34-70.65h33.5c0.23,16.89,17.11,37.43,37.84,37.43s37.61-20.54,37.84-37.43h0.05V281.06c-6.08,5.52-23.91,8.66-36.2,8.66-39,0-73.27-31.66-73.27-70.65V146.82H691v72.26c0,18.61,16.36,33.69,35,33.69,17.91,0,34.92-13.89,34.92-31.46V146.82Z"/><path class="b" d="M185.11,0q-7.57,0-15,.6L0.6,170.12q-0.59,7.41-.6,15c0,4.37.16,8.7,0.46,13L198.11,0.45Q191.66,0,185.11,0Z"/><path class="b" d="M126.78,9.38A185.58,185.58,0,0,0,9.38,126.78Z"/><path class="b" d="M371,185.11C371,97.68,310,24.41,228.47,5L4.64,228.09c15,63.27,56.33,114,123.22,133.46V172S128,136,164.13,135.77c15.5-.08,30.63-0.13,42.8-0.16V172l-29,0c-12.5,0-12.58,13.77-12.58,13.77L165.09,238h29.68v36.14l-30.41.05v94.89c3,0.72,13.65,1.1,20.49,1.1a186.23,186.23,0,0,0,50-6.81,69.2,69.2,0,0,1-28.34-55.86c0-38.24,33.21-69.35,71.44-69.35,12,0,20.15,3.06,35.35,8.45v-109H346.8V277.9C365,250.62,371,218.92,371,185.11Z"/><circle class="b" cx="278.6" cy="307.55" r="34.75"/></svg>