<svg xmlns="http://www.w3.org/2000/svg" viewBox="0 0 504.16 558.62"><defs><style>.a{fill:#ee4033;}.b{fill:#e6e6e6;}.c,.d{fill:none;stroke-miterlimit:10;stroke-width:5px;}.c{stroke:gray;}.d{stroke:#333;}</style></defs><title>image</title><polygon class="a" points="504.16 516.26 0 516.26 0 101.78 252.08 101.78 504.16 101.78 504.16 516.26"/><polygon class="b" points="252.08 21.63 60.69 20.72 94.71 101.78 252.08 101.78 409.45 101.78 443.48 20.72 252.08 21.63"/><path class="b" d="M252.25,212.53C144.18,212.53,126.69,260,126.69,260L252.25,385.56,377.82,260S360.33,212.53,252.25,212.53Z"/><line class="c" x1="206.56" y1="237.71" x2="212.34" y2="257.92"/><line class="d" x1="154.24" y1="251.7" x2="176.44" y2="274.43"/><line class="d" x1="252.17" y1="227.56" x2="252.17" y2="259.33"/><line class="c" x1="297.6" y1="239.11" x2="291.82" y2="259.33"/><line class="d" x1="349.92" y1="253.11" x2="327.72" y2="275.84"/><rect class="b" x="36.45" y="516.27" width="431.27" height="42.35"/></svg>