<svg xmlns="http://www.w3.org/2000/svg" viewBox="0 0 965 609.23"><defs><style>.a{fill:#303030;}.b{fill:#ee4033;}.c{fill:#fff;}.d{fill:#6bbced;}</style></defs><title>image</title><polygon class="a" points="914.36 113.23 419 0.23 419 82.23 419 99.03 419 608.77 915.18 608.23 914.36 113.23"/><path class="b" d="M0,222.23v387l420-.46V99C117,99,0,222.23,0,222.23Z"/><polygon class="b" points="965 297.09 801 461.09 801 502.12 965 338.12 965 297.09"/><polygon class="b" points="801 0 801 444.12 801 461.09 965 297.09 965 280.12 965 0 801 0"/><polygon class="b" points="801 609 965 609 965 413.09 801 577.09 801 609"/><polygon class="c" points="801 577.09 965 413.09 965 396.12 801 560.12 801 577.09"/><path class="c" d="M881.54,26.61q-2.27,0-4.49.18L826.27,77.58q-0.18,2.22-.18,4.49c0,1.31,0,2.61.14,3.89l59.21-59.21Q883.5,26.62,881.54,26.61Z"/><path class="c" d="M864.07,29.42A55.59,55.59,0,0,0,828.9,64.59Z"/><path class="c" d="M937.23,82.07a55.58,55.58,0,0,0-42.69-53.95L827.28,94.94c4.51,19,17.72,34.14,36.72,40V78.15s0.21-10.81,11-10.86l13,0V78.15h-8.64c-3.75,0-3.75,4.16-3.75,4.16L875.54,98H885v10.75l-9,0v28.43c0,0.22,3.75.33,5.8,0.33a54.55,54.55,0,0,0,14.82-2A20.72,20.72,0,0,1,908.93,98,21.34,21.34,0,0,1,919,100.5V68h11v41.86C937,101.69,937.23,92.2,937.23,82.07Z"/><circle class="c" cx="909.55" cy="118.74" r="10.41"/><path class="c" d="M854,180h-6.47l0-8.84a2.28,2.28,0,0,1,2.28-2.25c1,0,4.16.18,5.16,0.18v-6.43l-7.58,0c-6.37,0-6.42,6.4-6.42,6.4V204h7V187.12h6V180Z"/><path class="c" d="M869.1,180a8,8,0,0,0-5.1,2.26V180h-7v24h7V193.57c0-4.19,2.71-6.12,5.92-6.12H870V180h-0.9Z"/><path class="c" d="M926,192.56V163h-7v19.51a13.76,13.76,0,0,0-6-1.49,12.23,12.23,0,1,0,0,24.47,13.56,13.56,0,0,0,6-1.49v1h7V193.94c0-.23,0-0.46,0-0.69S926,192.79,926,192.56ZM913.33,199c-0.19,0-.38,0-0.58,0h0a6,6,0,0,1,0-12h0a2.54,2.54,0,0,0,.58.22A5.94,5.94,0,0,1,913.33,199Z"/><path class="c" d="M892,180v13.31c0,3-3.41,5.42-6.49,5.42s-6.51-2.6-6.51-5.8V180h-6v12.93c0,6.72,6,12.17,12.69,12.17,2.12,0,5.31-.54,6.31-1.49V210h-0.58a6.52,6.52,0,0,1-13,0h-5.77c0,8,5.94,12.6,12.69,12.6S898,218.19,898,210.86V180h-6Z"/><polygon class="b" points="801 519.09 801 560.12 965 396.12 965 355.09 801 519.09"/><polygon class="c" points="965 338.12 801 502.12 801 519.09 965 355.09 965 338.12"/><polygon class="d" points="487 548 487 92.23 747 146.3 747 548 487 548"/><rect class="d" x="80" y="367" width="258" height="242"/><rect class="a" x="487" y="471" width="260" height="12"/><rect class="a" x="554" y="86" width="12" height="391"/><rect class="a" x="662" y="86" width="12" height="391"/><path class="c" d="M74,356V609H215V368H332V609h12V356H74Zm129,12V518H86V368H203Z"/><rect class="d" x="487" y="482" width="260" height="66"/><path class="c" d="M225,263h-9V251.18s0-3.24,3-3.24c1.37,0,6,.09,7,0.08v-8.81l-10.29,0C207,239.31,207,248,207,248v48h9V272.73h9V263Z"/><path class="c" d="M247,263.63s-7,1.13-9,2.44V263h-9v33h9V281.57c0-5.74,4-8.39,9-8.39h0v-9.55h0Z"/><path class="c" d="M323,240h-9v26.41a19.76,19.76,0,0,0-8.28-2,16.76,16.76,0,1,0,.07,33.52,19.47,19.47,0,0,0,8.21-2V297h9V240Zm-16.77,49c-0.26,0-.52,0-0.79,0h0a8,8,0,1,1,0-16h0a7.55,7.55,0,0,1,.79.09A8,8,0,0,1,306.23,289Z"/><path class="c" d="M276,263h8v42.25c0,10-7.52,16.55-16.78,16.55A16.38,16.38,0,0,1,250.45,305h7.91c0.05,4,4,8.83,8.93,8.83s8.88-4.83,8.93-8.83H276v-9.69c-1,1.3-5.23,2-8.13,2A16.85,16.85,0,0,1,251,280.69V263h9v17.69a8,8,0,0,0,8,7.95c4.23,0,8-3.28,8-7.42V263Z"/><path class="c" d="M140.34,229q-1.79,0-3.54.14l-40,40q-0.14,1.75-.14,3.54c0,1,0,2.05.11,3.07l46.64-46.64Q141.89,229,140.34,229Z"/><path class="c" d="M126.58,231.2a43.79,43.79,0,0,0-27.71,27.71Z"/><path class="c" d="M184.45,272.67a43.89,43.89,0,0,0-33.75-42.5L97.9,282.81c3.55,14.93,13.1,26.89,29.1,31.5V269.58s0.21-8.51,8.73-8.56L146,261v8.6h-7.09c-3,0-3.1,3.17-3.1,3.17L135.62,285H143v8.69h-7v22.39a24.8,24.8,0,0,0,4.56.26,42.94,42.94,0,0,0,11.67-1.61,16.39,16.39,0,0,1-6.76-13.18c0-9,8-16.36,17-16.36,2.83,0,4.5.72,8.5,2V261h8v33.57C183,288.13,184.45,280.65,184.45,272.67Z"/><circle class="c" cx="162.41" cy="301.56" r="8.2"/></svg>