<svg xmlns="http://www.w3.org/2000/svg" viewBox="0 0 120.25 88.87"><defs><style>.a{fill:#b3b3b3;}</style></defs><title>image</title><path class="a" d="M56.87,0l-0.73.79C55.67,1.3,55,2.08,54.21,3.06s-1.72,2.19-2.65,3.61a30.16,30.16,0,0,0-2.64,4.84,18.27,18.27,0,0,0-1,2.79,14.68,14.68,0,0,0-.54,2.95,13.25,13.25,0,0,0,0,3,14.1,14.1,0,0,0,.64,3,8.51,8.51,0,0,0,2.85,4.54,10.06,10.06,0,0,0,2.46,1.3,32.52,32.52,0,0,0,3.53,1.08c1.34,0.35,2.81.7,4.41,1.24a19.43,19.43,0,0,1,5.07,2.43,12.93,12.93,0,0,1,4.16,4.81A15.17,15.17,0,0,1,72,44.12l0.17,0.63,0.16,0.41v1.26a21.52,21.52,0,0,1-.24,2.35A30.12,30.12,0,0,1,71.26,53a29.53,29.53,0,0,1-2.91,7.2,31.21,31.21,0,0,1-7.12,8.55,21.36,21.36,0,0,1-3.39,2.37s0.21-.31.57-0.9,0.88-1.45,1.48-2.57a42.72,42.72,0,0,0,3.76-9.39A30.51,30.51,0,0,0,64.6,52a23,23,0,0,0-.07-3.36c0-.6-0.12-1-0.18-1.62l-0.16-1,0-.25a0.64,0.64,0,1,0,0,.07V45.78l0-.1L64,45.3a7.28,7.28,0,0,0-1.08-2.43,4.39,4.39,0,0,0-1.58-1.33,13,13,0,0,0-2.81-1l-4-1a33.4,33.4,0,0,1-4.77-1.49,17.27,17.27,0,0,1-5-3,15,15,0,0,1-3.61-4.76,19,19,0,0,1-1-2.59L40,27c-0.07-.25-0.09-0.36-0.13-0.54l-0.05-.25v0l0-.12V26l0-.16-0.1-.62a20.32,20.32,0,0,1,.59-9.52A21.43,21.43,0,0,1,44.11,8.5,26,26,0,0,1,48.84,4,28.24,28.24,0,0,1,53,1.51,25,25,0,0,1,55.83.32,10.44,10.44,0,0,1,56.87,0Z"/><path class="a" d="M118.39,47.1l-0.56.42c-0.36.26-.87,0.68-1.49,1.18s-1.34,1.13-2.08,1.86a18.57,18.57,0,0,0-2.17,2.49,9.74,9.74,0,0,0-.89,1.43,7.49,7.49,0,0,0-.64,1.5,6.73,6.73,0,0,0-.34,1.53,8.72,8.72,0,0,0-.05,1.59l0.06,0.2,0.05,0.05v0s0-.34,0-0.17l0,0V59.4l0,0.64c0.08,0.19.09,0.21,0.16,0.43a2.44,2.44,0,0,0,.43.76,11.39,11.39,0,0,0,2.47,2c0.68,0.47,1.49,1,2.38,1.68a13.5,13.5,0,0,1,2.79,2.85,9.5,9.5,0,0,1,1.71,4.44,10.09,10.09,0,0,1-.4,4l-0.13.42,0,0.1,0,0.05v0c-0.05.21,0,.07,0,0.12l-0.06.15-0.23.58c-0.19.45-.41,1-0.63,1.46a19.83,19.83,0,0,1-1.49,2.47,18.06,18.06,0,0,1-10,6.87,12.22,12.22,0,0,1-2.63.42l0.48-.49c0.31-.31.74-0.79,1.26-1.39a28.87,28.87,0,0,0,3.54-5.09,18.71,18.71,0,0,0,1.43-3.45,12.73,12.73,0,0,0,.44-1.86c0.08-.34.07-0.54,0.13-0.87l0.08-.62,0-.16a0.59,0.59,0,1,0,0,.08h0V74.73a2.18,2.18,0,0,0-.26-1.08,1.85,1.85,0,0,0-.41-0.31c-0.19-.14-0.55-0.42-1.1-0.77L108,71.27a21.13,21.13,0,0,1-2.69-2A12.54,12.54,0,0,1,102.71,66a10.87,10.87,0,0,1-1.31-4.16,12.36,12.36,0,0,1,0-2.14l0.08-.64,0-.16v0c0,0.16,0-.24,0-0.21V58.67l0-.11,0.08-.42a13.42,13.42,0,0,1,7-9.5,15.45,15.45,0,0,1,4-1.45,16,16,0,0,1,3.13-.34,14,14,0,0,1,2,.13A5.56,5.56,0,0,1,118.39,47.1Z"/><path class="a" d="M17.06,47.1l-0.56.42c-0.36.26-.87,0.68-1.49,1.18s-1.34,1.13-2.08,1.86a18.57,18.57,0,0,0-2.17,2.49,9.74,9.74,0,0,0-.89,1.43A7.49,7.49,0,0,0,9.23,56a6.73,6.73,0,0,0-.34,1.53,8.72,8.72,0,0,0-.05,1.59l0.23,0.2,0.22,0.05v0s-0.2-.34-0.21-0.17L9,59.24l0,0.16V60C9,60.23,9,60.25,9.09,60.47a2.44,2.44,0,0,0,.42.76,11.35,11.35,0,0,0,2.46,2c0.68,0.47,1.49,1,2.38,1.68a13.5,13.5,0,0,1,2.79,2.85,9.5,9.5,0,0,1,1.71,4.44,10.09,10.09,0,0,1-.4,4l-0.13.42,0,0.1,0,0.05v0c-0.05.21,0,.07,0,0.12l-0.06.15-0.23.58c-0.19.45-.41,1-0.63,1.46a19.83,19.83,0,0,1-1.49,2.47,18.16,18.16,0,0,1-3.54,3.67,18.1,18.1,0,0,1-6.43,3.2,12.22,12.22,0,0,1-2.63.42l0.48-.49C4,88.07,4.44,87.59,5,87A28.87,28.87,0,0,0,8.5,81.9a18.71,18.71,0,0,0,1.43-3.45,12.73,12.73,0,0,0,.44-1.86c0.08-.34.07-0.54,0.13-0.87l0.08-.62,0-.16a0.59,0.59,0,1,0,0,.08h0V74.73a2.18,2.18,0,0,0-.26-1.08,1.85,1.85,0,0,0-.41-0.31c-0.19-.14-0.55-0.42-1.1-0.77l-2.09-1.3a21.13,21.13,0,0,1-2.69-2A12.54,12.54,0,0,1,1.38,66,10.87,10.87,0,0,1,.07,61.88a12.36,12.36,0,0,1,0-2.14l0.08-.64,0-.16v0c0,0.16,0-.24,0-0.21V58.67l0-.11,0.08-.42a13.42,13.42,0,0,1,7-9.5,15.45,15.45,0,0,1,4-1.45,16,16,0,0,1,3.13-.34,14,14,0,0,1,2,.13A5.56,5.56,0,0,1,17.06,47.1Z"/></svg>