<svg xmlns="http://www.w3.org/2000/svg" viewBox="0 0 375.45 245.07"><defs><style>.a{fill:#ed7a77;}.b{fill:#ef8989;}.c{fill:#d66767;}</style></defs><title>image</title><path class="a" d="M297.68,0.07H81.37a61.37,61.37,0,0,0-6.45-.35C31.05-.28,0,46.23,0,46.23V245.07H229.28V46.23S257.29,4.28,297.68.07Z"/><path class="b" d="M304.19-.28a62.66,62.66,0,0,0-6.51.35c-40.4,4.21-68.41,46.17-68.41,46.17V245.07h21V62.72s23.25-42.65,55.4-42.65,52.73,43,52.73,43v182h17V46.62S348.05-.28,304.19-0.28Z"/><path class="c" d="M305.71,20.07c-32.15,0-55.4,42.65-55.4,42.65V245.07H358.43v-182S337.86,20.07,305.71,20.07Z"/></svg>