<svg xmlns="http://www.w3.org/2000/svg" viewBox="0 0 470.9 477.5"><defs><style>.a{fill:#eadc36;}.b{fill:#ee4033;}.c{fill:#e8a538;}.d{fill:#fff;}</style></defs><title>image</title><polygon class="a" points="50.51 120.54 -0.46 171.51 50.83 222.8 50.51 120.54"/><path class="b" d="M50.51,224.86v-2.38c-0.32,24.14-38.35,63.75-38.35,94.05,0,32.19,44,32,44-.24l0-.38a210.75,210.75,0,0,1-5.66-48.61V224.86Z"/><path class="b" d="M149.68,7.08A144.4,144.4,0,0,0,84.29,43h0a105.62,105.62,0,0,1,11.79-9.43A149.57,149.57,0,0,1,149.68,7.08Z"/><path class="b" d="M293.26,35.16l0.44,0.3h0a10.79,10.79,0,0,0-7.32-13.71c-12-5.21-61.33-24.63-115-18.58q3.59-.37,7.13-0.56C238.38-.7,288,31.64,293.26,35.16Z"/><path class="b" d="M155.61,15A105.14,105.14,0,0,1,256.76,91.53l1.9,2.82h0a29,29,0,1,0,38.91-40.51A247.25,247.25,0,0,0,268.1,30.7h0q-3.06-2-6.1-3.9l-0.06,0c-0.88-.54-1.76-1.07-2.64-1.59l-0.73-.43L256,23.24,255.47,23q-4.12-2.32-8.19-4.34l-0.67-.33-2.46-1.19-0.77-.36q-4-1.85-7.85-3.43l-0.61-.25-2.28-.89-1-.37L229.47,11l-0.88-.31q-2.34-.82-4.65-1.56L223.55,9l-2-.61L220.31,8l-1.9-.54-1.32-.35-1.83-.48-1.61-.39q-1.39-.33-2.78-0.63l-1.58-.34L207.71,5l-1.62-.3-1.48-.26-2-.32-1.48-.22-2.49-.33-1.23-.14-1.89-.2-1.21-.12-2.07-.17-0.95-.07q-1.47-.1-2.92-0.17l-0.76,0-2.23-.07-1,0h-3c-1,0-1.93,0-2.89.05q-3.54.2-7.13,0.56a146,146,0,0,0-21.73,3.9A149.57,149.57,0,0,0,96.09,33.53,104.6,104.6,0,0,1,155.61,15Z"/><path class="c" d="M260.71,267.3V120.54h0c0-.13,0-0.26,0-0.39a105.1,105.1,0,0,0-210.2,0c0,0.13,0,.26,0,0.39h0V267.3a210.75,210.75,0,0,0,5.66,48.61C78.11,408.56,161.35,477.5,260.71,477.5c116.09,0,210.2-94.11,210.2-210.2v-147C470.9,163.86,376.22,267.3,260.71,267.3Z"/><circle class="d" cx="155.61" cy="120.54" r="42.61"/></svg>