<svg xmlns="http://www.w3.org/2000/svg" viewBox="0 0 399.3 251.3"><defs><style>.a{fill:#ccc;}.b{fill:#f2f2f2;}.c{fill:#e6e6e6;}.d{fill:#d1a880;}.e{fill:#c69c6d;}</style></defs><title>image</title><ellipse class="a" cx="199.65" cy="216.25" rx="160.34" ry="35.05"/><ellipse class="b" cx="199.65" cy="192.17" rx="199.65" ry="43.64"/><ellipse class="c" cx="199.65" cy="182.69" rx="160.34" ry="35.05"/><path class="c" d="M169.23,49.28c-9.83-6.94-20.62-17.1-22.33-28.81-2-13.88-14.48-21.64-22.76-20.32C106.47,3,89.74,12.14,107.91,21.3c4.32,2.18,20.68,19.82,33.48,36.28C145.18,53.24,159.64,48.34,169.23,49.28Z"/><path class="d" d="M185.82,58.88a98.65,98.65,0,0,1-16.59-9.6c-9.59-.93-24,4-27.85,8.3,8.68,11.16,15.72,21.77,16.25,26.64,2.63,24.22-5,57.59,39.51,109.93,29.84,35.06,83.06-10,84-54.73C281.78,105,210.16,68.1,185.82,58.88Z"/><path class="e" d="M307.27,49.16C218.87,35,73.87,74.6,56.83,164.3c-9.3,49,194.74,57.69,268.6,17.88C375.52,155.18,355,56.82,307.27,49.16Z"/><path class="c" d="M125.61,61.89c-11.56-5.63-25.16-14.7-28.87-27C92.51,20.89,78.38,14.77,70,17.4,52.06,23,36.09,35,56.37,41.72,61.75,43.5,85.75,63,102.12,79.37,102.52,73.63,115.94,62.17,125.61,61.89Z"/><path class="d" d="M254.34,137.31c-4.57-35.65-84.61-62.84-111.3-68.65a102,102,0,0,1-17.44-6.76c-9.67.28-23.09,11.73-23.49,17.48,8.19,8.22,14.47,15.67,15.54,19.75,6.44,24.61,3.59,60.24,57.89,107.5C211.91,238.28,260.27,183.59,254.34,137.31Z"/><path class="d" d="M222.66,59.77s72.31-9,89.8,2.87C347.88,86.72,342,133.29,342,133.29S318.33,60.06,222.66,59.77Z"/></svg>