<svg xmlns="http://www.w3.org/2000/svg" viewBox="0 0 419 263"><defs><style>.a{fill:#c69c6d;}.b{fill:#e6e6e6;}.c{fill:#a67c52;}</style></defs><title>image</title><rect class="a" width="419" height="263"/><path class="b" d="M146.1,89.69c-9.1-4.43-19.8-11.57-22.71-21.23-3.33-11-14.44-15.85-21.05-13.78C88.23,59.1,75.66,68.56,91.62,73.82c4.24,1.4,23.12,16.71,36,29.62C127.93,98.92,138.49,89.91,146.1,89.69Z"/><path class="b" d="M188.09,70.66c-8.22-5.9-17.57-14.74-18.81-24.75-1.42-11.44-11.57-18.05-18.43-17.13-14.65,2-28.63,9.18-13.79,17.06,3.94,2.09,20,20.37,30.49,35.26C168.63,76.7,180.55,69.6,188.09,70.66Z"/><path class="c" d="M251.37,148.53c-4.12-32.17-72.58-53.47-90.69-57.42a78.13,78.13,0,0,1-12.82-5L147,85.67l-1,0c-9.1.27-21.85,10.24-22.36,17.48L123.5,105l1.28,1.33c9.8,9.83,11,13.25,11.19,13.81,0.83,3.16,1.47,6.84,2.15,10.55,3.44,18.76,8.15,44.63,44.64,76.39,6.39,5.56,13.49,8.89,21.13,8.89h0c10.79,0,21.79-6.26,31-16.68C247.21,185.28,253.54,165.5,251.37,148.53Z"/><path class="c" d="M289,79.67c-28.79-4.62-65.2-2-98.95,7.69a248.21,248.21,0,0,1,26.49,11.11C245.25,112.66,261,129,263.27,147c2.28,17.77-2.91,37.37-13.7,53.07,21.19-3.24,40.25-8.45,53.77-15.73C342.75,163.1,326.59,85.7,289,79.67Z"/><path class="c" d="M126.35,133l0-.11-0.2-1.11c-0.5-2.71-1-5.3-1.49-7.5a33.35,33.35,0,0,0-2.2-2.84C106.78,134.75,95.64,151,92,170.28c-3.32,17.5,28,28.47,68.6,32.29C133.89,174.06,129.43,149.81,126.35,133Z"/><path class="c" d="M167.43,88.15a109.58,109.58,0,0,1,37.09-12.68c-0.83-.36-1.61-0.68-2.3-1a78.13,78.13,0,0,1-11.8-7.1l-0.8-.57-1-.13c-9-1.27-23.26,6.41-25,13.47L163.23,82l1,1.53C165.5,85.23,166.53,86.76,167.43,88.15Z"/><path class="a" d="M222.47,88s56.9-7.09,70.66,2.26c27.87,18.95,23.26,55.59,23.26,55.59S297.74,88.25,222.47,88Z"/></svg>