<svg xmlns="http://www.w3.org/2000/svg" viewBox="0 0 562 1154.96"><defs><style>.a{fill:#ee4033;}.b{fill:#fff;}.c{fill:#333;}.d{fill:#ccc;}.e{fill:#eadc36;}.f{fill:#e6e6e6;}.g{fill:#c4b530;}</style></defs><title>image</title><rect class="a" x="28.75" y="-2" width="504.16" height="757.08"/><path class="b" d="M280.51,183.19q-6.43,0-12.72.51l-144,144q-0.5,6.3-.51,12.72c0,3.71.14,7.39,0.39,11L291.55,183.57Q286.08,183.19,280.51,183.19Z"/><path class="b" d="M231,191.15a157.58,157.58,0,0,0-99.69,99.69Z"/><path class="b" d="M438.42,340.37c0-74.24-51.84-136.46-121-152.92l-190,189.42C140.12,430.6,175,473.64,232,490.21V329.27s0.08-30.63,30.72-30.8c13.16-.07,26.28-0.11,36.28-0.13v30.94l-24.59,0c-10.62,0-10.67,11.56-10.67,11.56l-0.23,44.19H289V416l-26,0v80.58c2,0.61,11.54.93,17.34,0.93a157.93,157.93,0,0,0,42.47-5.78,58.77,58.77,0,0,1-24.08-47.43c0-32.47,28-58.89,60.46-58.89,10.19,0,16.81,2.6,29.81,7.18V300.07h29v119.1C433,396,438.42,369.09,438.42,340.37Z"/><circle class="b" cx="359.9" cy="444.34" r="29.51"/><rect class="c" y="45.07" width="29" height="142"/><rect class="c" y="204.07" width="29" height="143"/><rect class="c" x="35" y="796.07" width="29" height="143"/><rect class="c" x="498" y="796.07" width="29" height="143"/><rect class="c" x="533" y="45.07" width="29" height="142"/><rect class="c" x="533" y="204.07" width="29" height="143"/><rect class="d" x="93" y="755.07" width="376" height="23"/><path class="d" d="M176.51,1034.1v10.43c23.22,10.14,106.6,10.47,106.6,10.47s83.38-.33,106.6-10.47v-10.42c-28.68,5.06-64,8.59-106.6,8.59S205.2,1039.17,176.51,1034.1Z"/><path class="e" d="M72,1008.07v8.75H89s7.71,6.69,16,8.52v-10.81c-5.67-2.28-10.51-4.47-14.54-6.46H72Z"/><path class="f" d="M64,778.07v230H90.51c4,2,8.87,4.18,14.54,6.46,16.45,6.62,40,14,71.46,19.58,28.68,5.06,64,8.6,106.6,8.6s77.92-3.53,106.6-8.59c42.35-7.47,70.27-18.29,86-26H498v-230H64Z"/><path class="g" d="M105.05,1025.34s7.49,2.3,18.24-4.22l-18.24-6.59v10.81Z"/><path class="e" d="M494.26,1008.08v8.75h-17s-7.71,6.69-16,8.52v-10.81c5.67-2.28,10.51-4.47,14.54-6.46h18.52Z"/><path class="g" d="M461.2,1025.35s-7.49,2.3-18.24-4.22l18.24-6.59v10.81Z"/></svg>